<mxfile host="app.diagrams.net" modified="2022-11-14T15:38:58.544Z" agent="5.0 (Macintosh; Intel Mac OS X 10_15_7) AppleWebKit/537.36 (KHTML, like Gecko) Chrome/105.0.0.0 Safari/537.36" etag="Ya0OqzbtCicqsGDQI7I4" version="20.5.3" type="github">
  <diagram id="XWgwkVAvqwb-OowS4SBx" name="Page-1">
    <mxGraphModel dx="946" dy="565" grid="1" gridSize="10" guides="1" tooltips="1" connect="1" arrows="1" fold="1" page="1" pageScale="1" pageWidth="827" pageHeight="1169" math="0" shadow="0">
      <root>
        <mxCell id="0" />
        <mxCell id="1" parent="0" />
        <mxCell id="95Zid7nxKHGkHq2rjqnQ-1" value="ProjectA" style="rounded=0;whiteSpace=wrap;html=1;" vertex="1" parent="1">
          <mxGeometry x="40" y="160" width="120" height="60" as="geometry" />
        </mxCell>
        <mxCell id="95Zid7nxKHGkHq2rjqnQ-2" value="ProjectB" style="rounded=0;whiteSpace=wrap;html=1;" vertex="1" parent="1">
          <mxGeometry x="240" y="160" width="120" height="60" as="geometry" />
        </mxCell>
        <mxCell id="95Zid7nxKHGkHq2rjqnQ-3" value="App" style="rounded=0;whiteSpace=wrap;html=1;" vertex="1" parent="1">
          <mxGeometry x="140" y="40" width="120" height="60" as="geometry" />
        </mxCell>
        <mxCell id="95Zid7nxKHGkHq2rjqnQ-4" value="C@1.0.0" style="rounded=0;whiteSpace=wrap;html=1;" vertex="1" parent="1">
          <mxGeometry x="140" y="290" width="120" height="60" as="geometry" />
        </mxCell>
        <mxCell id="95Zid7nxKHGkHq2rjqnQ-5" value="ProjectA" style="rounded=0;whiteSpace=wrap;html=1;" vertex="1" parent="1">
          <mxGeometry x="480" y="160" width="120" height="60" as="geometry" />
        </mxCell>
        <mxCell id="95Zid7nxKHGkHq2rjqnQ-6" value="ProjectB" style="rounded=0;whiteSpace=wrap;html=1;" vertex="1" parent="1">
          <mxGeometry x="680" y="160" width="120" height="60" as="geometry" />
        </mxCell>
        <mxCell id="95Zid7nxKHGkHq2rjqnQ-7" value="C@1.0.1" style="rounded=0;whiteSpace=wrap;html=1;" vertex="1" parent="1">
          <mxGeometry x="480" y="280" width="120" height="60" as="geometry" />
        </mxCell>
        <mxCell id="95Zid7nxKHGkHq2rjqnQ-8" value="App" style="rounded=0;whiteSpace=wrap;html=1;" vertex="1" parent="1">
          <mxGeometry x="590" y="40" width="120" height="60" as="geometry" />
        </mxCell>
        <mxCell id="95Zid7nxKHGkHq2rjqnQ-9" value="C@1.0.0" style="rounded=0;whiteSpace=wrap;html=1;" vertex="1" parent="1">
          <mxGeometry x="680" y="280" width="120" height="60" as="geometry" />
        </mxCell>
        <mxCell id="95Zid7nxKHGkHq2rjqnQ-10" value="" style="endArrow=classic;html=1;rounded=0;" edge="1" parent="1" source="95Zid7nxKHGkHq2rjqnQ-3" target="95Zid7nxKHGkHq2rjqnQ-1">
          <mxGeometry width="50" height="50" relative="1" as="geometry">
            <mxPoint x="390" y="320" as="sourcePoint" />
            <mxPoint x="440" y="270" as="targetPoint" />
          </mxGeometry>
        </mxCell>
        <mxCell id="95Zid7nxKHGkHq2rjqnQ-11" value="" style="endArrow=classic;html=1;rounded=0;" edge="1" parent="1" source="95Zid7nxKHGkHq2rjqnQ-3" target="95Zid7nxKHGkHq2rjqnQ-2">
          <mxGeometry width="50" height="50" relative="1" as="geometry">
            <mxPoint x="200" y="110" as="sourcePoint" />
            <mxPoint x="140" y="170" as="targetPoint" />
          </mxGeometry>
        </mxCell>
        <mxCell id="95Zid7nxKHGkHq2rjqnQ-12" value="" style="endArrow=classic;html=1;rounded=0;" edge="1" parent="1" source="95Zid7nxKHGkHq2rjqnQ-1" target="95Zid7nxKHGkHq2rjqnQ-4">
          <mxGeometry width="50" height="50" relative="1" as="geometry">
            <mxPoint x="210" y="120" as="sourcePoint" />
            <mxPoint x="180" y="250" as="targetPoint" />
          </mxGeometry>
        </mxCell>
        <mxCell id="95Zid7nxKHGkHq2rjqnQ-13" value="" style="endArrow=classic;html=1;rounded=0;" edge="1" parent="1" source="95Zid7nxKHGkHq2rjqnQ-2" target="95Zid7nxKHGkHq2rjqnQ-4">
          <mxGeometry width="50" height="50" relative="1" as="geometry">
            <mxPoint x="220" y="130" as="sourcePoint" />
            <mxPoint x="160" y="190" as="targetPoint" />
          </mxGeometry>
        </mxCell>
        <mxCell id="95Zid7nxKHGkHq2rjqnQ-14" value="" style="endArrow=classic;html=1;rounded=0;" edge="1" parent="1" source="95Zid7nxKHGkHq2rjqnQ-8" target="95Zid7nxKHGkHq2rjqnQ-5">
          <mxGeometry width="50" height="50" relative="1" as="geometry">
            <mxPoint x="230" y="140" as="sourcePoint" />
            <mxPoint x="170" y="200" as="targetPoint" />
          </mxGeometry>
        </mxCell>
        <mxCell id="95Zid7nxKHGkHq2rjqnQ-15" value="" style="endArrow=classic;html=1;rounded=0;" edge="1" parent="1" source="95Zid7nxKHGkHq2rjqnQ-8" target="95Zid7nxKHGkHq2rjqnQ-6">
          <mxGeometry width="50" height="50" relative="1" as="geometry">
            <mxPoint x="240" y="150" as="sourcePoint" />
            <mxPoint x="180" y="210" as="targetPoint" />
          </mxGeometry>
        </mxCell>
        <mxCell id="95Zid7nxKHGkHq2rjqnQ-16" value="" style="endArrow=classic;html=1;rounded=0;" edge="1" parent="1" source="95Zid7nxKHGkHq2rjqnQ-5" target="95Zid7nxKHGkHq2rjqnQ-7">
          <mxGeometry width="50" height="50" relative="1" as="geometry">
            <mxPoint x="250" y="160" as="sourcePoint" />
            <mxPoint x="190" y="220" as="targetPoint" />
          </mxGeometry>
        </mxCell>
        <mxCell id="95Zid7nxKHGkHq2rjqnQ-17" value="" style="endArrow=classic;html=1;rounded=0;" edge="1" parent="1" source="95Zid7nxKHGkHq2rjqnQ-6" target="95Zid7nxKHGkHq2rjqnQ-9">
          <mxGeometry width="50" height="50" relative="1" as="geometry">
            <mxPoint x="260" y="170" as="sourcePoint" />
            <mxPoint x="200" y="230" as="targetPoint" />
          </mxGeometry>
        </mxCell>
      </root>
    </mxGraphModel>
  </diagram>
</mxfile>
